<svg xmlns="http://www.w3.org/2000/svg" viewBox="0 0 500 500">
<path d="M256.584 313.851 290.1 358H355V148H145v210h85v-10h-75V158h190v190h-49.6l-30.889-38.797z" style="fill:#968e8e"/><path d="M471.659 253.127c0 60.968-24.934 116.672-64.868 156.607-39.935 39.934-95.639 64.868-156.607 64.868s-116.672-24.934-156.606-64.868C53.644 369.799 28.71 314.095 28.71 253.127S53.644 136.455 93.578 96.521s95.638-64.868 156.606-64.868 116.672 24.934 156.607 64.868c39.934 39.934 64.868 95.638 64.868 156.606m-68.62-152.855c-39.266-39.265-92.969-63.313-152.855-63.313S136.595 61.007 97.329 100.272s-63.313 92.97-63.313 152.855c0 59.886 24.048 113.59 63.313 152.855 39.266 39.266 92.97 63.313 152.855 63.313 59.886 0 113.589-24.047 152.855-63.313 39.266-39.265 63.313-92.969 63.313-152.855s-24.047-113.589-63.313-152.855" style="fill:#968e8e"/><path d="M221.015 250h128.999v7H221.015zM252.966 149.966h8v69.627h-8zM148.154 294.549h45.878v8h-45.878z" style="fill:#968e8e"/></svg>