<svg xmlns="http://www.w3.org/2000/svg" viewBox="0 0 500 500"><path d="M471.659 253.127c0 60.968-24.934 116.672-64.868 156.607-39.935 39.934-95.639 64.868-156.607 64.868s-116.672-24.934-156.606-64.868C53.644 369.799 28.71 314.095 28.71 253.127S53.644 136.455 93.578 96.521s95.638-64.868 156.606-64.868 116.672 24.934 156.607 64.868c39.934 39.934 64.868 95.638 64.868 156.606m-68.62-152.855c-39.266-39.265-92.969-63.313-152.855-63.313S136.595 61.007 97.329 100.272s-63.313 92.97-63.313 152.855c0 59.886 24.048 113.59 63.313 152.855 39.266 39.266 92.97 63.313 152.855 63.313 59.886 0 113.589-24.047 152.855-63.313 39.266-39.265 63.313-92.969 63.313-152.855s-24.047-113.589-63.313-152.855" style="fill:#968e8e"/><path d="m251 254 100 65-100 64-101-64zm0 119 85-54-85-55-85 55z" style="fill:#968e8e"/><path d="M246 137.098v122l-89 58.1v-124.8zm-96 182.1L251 261.3V128.498l-101 61.5z" style="fill:#968e8e"/><path d="M342.831 310.612v-119.7l-90-58.7v123.9zm-96-181.3 100 60.5v130.2l-100-61.5z" style="stroke-width:1;fill:#968e8e" transform="matrix(-1 0 0 -1 597.831 448.312)"/><path d="m225.247 278.18 87.277 57.456-6.803 4.624-88.192-58.69z" style="fill:#968e8e"/><path d="m195.151 297.156 87.277 57.456-6.803 4.624-88.192-58.69z" style="stroke-width:1;fill:#968e8e"/><path d="m196.339 340.26 87.277-57.456-6.803-4.624-88.192 58.69z" style="stroke-width:1;transform-box:fill-box;transform-origin:50% 50%;fill:#968e8e" transform="scale(-1)"/><path d="m226.284 358.644 87.277-57.456-6.803-4.624-88.192 58.69z" style="stroke-width:1;transform-origin:266.064px 327.604px;fill:#968e8e" transform="scale(-1)"/></svg>